<svg xmlns="http://www.w3.org/2000/svg" xmlns:xlink="http://www.w3.org/1999/xlink" width="310.919" height="134.5" viewBox="0 0 310.919 134.5">
  <defs>
    <clipPath id="clip-path">
      <rect id="사각형_5334" data-name="사각형 5334" width="225.624" height="97.168" fill="none"/>
    </clipPath>
    <clipPath id="clip-path-2">
      <rect id="사각형_5330" data-name="사각형 5330" width="22.697" height="57.941" fill="none"/>
    </clipPath>
    <clipPath id="clip-path-3">
      <rect id="사각형_5333" data-name="사각형 5333" width="17.746" height="55.621" fill="none"/>
    </clipPath>
    <clipPath id="clip-path-4">
      <rect id="사각형_5332" data-name="사각형 5332" width="70.5" height="101.858" fill="none"/>
    </clipPath>
    <clipPath id="clip-path-5">
      <rect id="사각형_5331" data-name="사각형 5331" width="58.004" height="93.07" transform="translate(0 0)" fill="none"/>
    </clipPath>
  </defs>
  <g id="그룹_36866" data-name="그룹 36866" transform="translate(-33.127 -257.219)">
    <g id="그룹_19194" data-name="그룹 19194" transform="translate(73.02 260.416)">
      <g id="그룹_19193" data-name="그룹 19193" clip-path="url(#clip-path)">
        <path id="패스_17899" data-name="패스 17899" d="M233.094,135.6a116.917,116.917,0,0,0,10.421,8.173c14.828,10.19,31.314,17.4,48.437,20.19a94.509,94.509,0,0,0,36.818-1.089,91.536,91.536,0,0,0,13.943-4.55c5.994-2.473,10.976-6.454,15.586-11.692,6.173-7.014,8.677-11.669,12.39-19.909.381-.847-.65-1.647-1.074-.821-1.94,3.782-4.58,9.871-7,13.261-8.156,11.441-15.6,17.8-33.485,22.113-17.278,4.169-35.3,3-52.259-2.49a127.258,127.258,0,0,1-43.27-24.465" transform="translate(-145.147 -68.099)" fill="#de51a3"/>
        <path id="패스_17900" data-name="패스 17900" d="M92.91,71.3C84.394,64.9,75.723,58.248,68.658,49.7,62.78,42.6,57.539,33.477,57.829,23.291c.277-9.69,4.483-19.461,12.993-22.5,7.25-2.592,16.024,1.381,19.473,9.434,1.352,3.157,1.55,7.66-1.238,9.938a2.2,2.2,0,0,1-2.966-.235c-.9-.842-.692-2.519-.446-3.633.924-4.178,4.009-6.867,7.1-8.906a20.731,20.731,0,0,1,11.848-3.273,17.307,17.307,0,0,1,16.89,13.872c1.8,8.765-1.481,17.25-6.136,24.015A141.5,141.5,0,0,1,91.731,68.207c-8.08,6.739-12.044,9.014-21.042,14.041-9.98,5.576-25.688,10.366-38.5,7.74C22.528,88.009,3.857,80.459,0,76.5l10.406,1.621c3.629,3.438,10.848,7.107,15.239,8.452,11.06,3.389,20.195,3.332,31.527-.232C69.324,82.516,80.148,76.191,90.24,67.8A136.926,136.926,0,0,0,114,41.567c4.88-7.092,9.064-17.045,5.389-26.071-4.052-9.952-15.6-11.97-23.727-8.08-3.558,1.7-8.438,4.981-8.905,9.95-.174,1.844,1.351,2.348,2.241.844a6.89,6.89,0,0,0,1.016-3.88A11.615,11.615,0,0,0,87.6,8.245c-2.926-3.9-7.384-7.059-11.988-6.9A15.718,15.718,0,0,0,63.726,8.008c-6.761,9.165-5.51,21.929-.362,31.577,5.085,9.528,13.667,17.863,21.643,24,5.048,3.886,6.638,5.587,14.347,11.158" transform="translate(0 0)" fill="#de51a3"/>
      </g>
    </g>
    <g id="그룹_19186" data-name="그룹 19186" transform="translate(321.349 257.219)">
      <g id="그룹_19185" data-name="그룹 19185" clip-path="url(#clip-path-2)">
        <path id="패스_17846" data-name="패스 17846" d="M12.787,197.544S11.722,224.074.164,231.662" transform="translate(-0.144 -173.751)" fill="none" stroke="#ff2a00" stroke-miterlimit="10" stroke-width="0.597"/>
        <path id="패스_17847" data-name="패스 17847" d="M40.826,23.1s8.862-2.331,9.858-10.733C51.689,3.879,46.014-1.8,38.495.525s-10.7,15.66,2.331,22.58" transform="translate(-28.102 0)" fill="#fa9c9c"/>
        <path id="패스_17848" data-name="패스 17848" d="M91.935,186.6s1.324,1.033,1.431,1.2a.527.527,0,0,1-.491.772,3.533,3.533,0,0,0-1.7-.273c-.586.173-1.457.21-.936-.439a6.539,6.539,0,0,1,1.7-1.258" transform="translate(-79.225 -164.12)" fill="#fa9c9c"/>
        <path id="패스_17849" data-name="패스 17849" d="M138.538,22.409s-.252-4.561-3.832-5.624c-.86-.229-1.18.329-.652,1.021s2.236,1.163,2.872,4.194c.5,2.391,1.587,1.992,1.612.409" transform="translate(-117.682 -14.717)" fill="#fff"/>
      </g>
    </g>
    <g id="그룹_19192" data-name="그룹 19192" transform="translate(33.127 286.189)">
      <g id="그룹_19191" data-name="그룹 19191" clip-path="url(#clip-path-3)">
        <path id="패스_17895" data-name="패스 17895" d="M80.182,306.739s-4.416,24.32,4.545,33.559" transform="translate(-73.411 -284.7)" fill="none" stroke="#ff2a00" stroke-miterlimit="10" stroke-width="0.932"/>
        <path id="패스_17896" data-name="패스 17896" d="M6.838,21.4S-.741,17.481.06,9.645c.809-7.92,7.119-11.931,13.478-8.29s6.546,16.4-6.7,20.042" transform="translate(-0.001 0)" fill="#fa9c9c"/>
        <path id="패스_17897" data-name="패스 17897" d="M75.655,289.876s-1.413.67-1.543.8a.49.49,0,0,0,.289.8,3.289,3.289,0,0,1,1.6.1c.5.276,1.281.486.94-.209a6.083,6.083,0,0,0-1.291-1.489" transform="translate(-68.678 -269.049)" fill="#fa9c9c"/>
        <path id="패스_17898" data-name="패스 17898" d="M35.107,23.954s1.154-4.092,4.623-4.332c.828-.034,1.006.539.385,1.06s-2.267.6-3.46,3.228c-.941,2.07-1.846,1.487-1.548.044" transform="translate(-32.531 -18.211)" fill="#fff"/>
      </g>
    </g>
    <g id="그룹_19190" data-name="그룹 19190" transform="translate(42 289.859)">
      <g id="그룹_19189" data-name="그룹 19189" transform="translate(0 0.001)" clip-path="url(#clip-path-4)">
        <path id="패스_17875" data-name="패스 17875" d="M62.747,1010.655s-2.037,2.853-9.355,4.432c-3.142.678-3.061,3.845.759,4.858a12.884,12.884,0,0,0,8.927-.668c2.495-1.014,5.121.394,6.449-.788,1.938-1.725.729-6.878.729-6.878Z" transform="translate(-46.492 -918.591)" fill="#c96b6b"/>
        <path id="패스_17876" data-name="패스 17876" d="M154.192,539.9a24.7,24.7,0,0,0,9.383,1.184c.9-.4,2.122-9.137,3.714-17.4s2.09-7.86,2.687-8.955,5.87-7.462,10.049-12.736a11.94,11.94,0,0,0,1.99-11.044s-14.427-.4-15.323,1.393-6.467,15.522-7.562,20.4-4.378,21.293-4.876,23.283-1.257,3.575-.063,3.874" transform="translate(-139.567 -446.2)" fill="#fa9494"/>
        <path id="패스_17877" data-name="패스 17877" d="M629.084,895.726a6.792,6.792,0,0,1-1.287,5.495c-1.508,2.111-3.72,3.158-2.141,4.19s7.45,1.322,8.745-1.549c2.323-5.147,3.246-5.4,4.157-8.258s-4.13-5.283-4.13-5.283Z" transform="translate(-568.168 -809.218)" fill="#c96b6b"/>
        <path id="패스_17878" data-name="패스 17878" d="M373.41,504.635s5.86,14.849,9.292,17.908,15.82,14.97,17.232,14.939c1.158-.025,5.415-2.252,6.311-5.759.373-1.269-2.313-4.627-5.373-7.761s-6.94-6.119-7.313-7.91-7.761-21.716-7.761-21.716Z" transform="translate(-339.395 -449.306)" fill="#fa9494"/>
        <path id="패스_17879" data-name="패스 17879" d="M376.282,16.494s2.309,4.314,1.4,7.687-6.258,1.367-8.628-1.732-1.732-5.985-.729-7.17,5.742-2.795,7.96,1.215" transform="translate(-333.952 -12.666)" fill="#ffc0b3"/>
        <path id="패스_17880" data-name="패스 17880" d="M350.416,52.079a16.116,16.116,0,0,1-.047-6.089c.652-2.974-7.151-6.88-7.151-6.88s2.938,13.134-3.469,13.984l4.815,3.045Z" transform="translate(-308.799 -35.547)" fill="#ffc0b3"/>
        <path id="패스_17881" data-name="패스 17881" d="M273.257,196.063s4.513,1.764,14.961,2.062c6.418-.6,7.761-1.567,7.761-1.94a46.9,46.9,0,0,1-2.463-8.582c-1.716-7.612,3.265-21.119-7.892-22.443-7.89-.937-9.421,2.295-11.287,9.981a94.263,94.263,0,0,0-1.94,19.552c.124.647.188,1.146.859,1.371" transform="translate(-247.561 -149.972)" fill="#fafafa"/>
        <path id="패스_17882" data-name="패스 17882" d="M353.886.926a4.139,4.139,0,0,1,5.329.091c2.1,1.588,1.913,2.346,2.869,2.642.394.122.046.82-2,.843s-.881.023-1.078.418-.547-.061-1.867-.015-.865.7-1.685,1.974-1.68,3.181-2.277,3.295c-1.2.228-2.8-2.2-3.2-4.555-.5-2.915,2.353-5.223,3.917-4.691" transform="translate(-318.036 -0.001)" fill="#ba693d"/>
        <path id="패스_17883" data-name="패스 17883" d="M389.045,64.438s-.342-1.344-1.457-1.093-1.23,1.776-.433,2.619a5.572,5.572,0,0,0,1.344,1.116Z" transform="translate(-351.418 -57.546)" fill="#ffc0b3"/>
        <path id="패스_17884" data-name="패스 17884" d="M9.143,480.94a7.877,7.877,0,0,1-2.792,1.493c-2,.7-1.348.487-2.4.812A5.081,5.081,0,0,0,.421,486.09c-1.057,2.233.029,1.846,1.572,3.523,0,0,1.519,1.246,2.3.678s3.4-.563,3.074-2.644-.937-1.014-1.176-.892-.043-.381.348-.731a39.68,39.68,0,0,1,4.262-2.193c2.394-1.189-1.661-2.891-1.661-2.891" transform="translate(0 -437.129)" fill="#ffc0b3"/>
        <path id="패스_17885" data-name="패스 17885" d="M83.888,168.44s-5.87.5-10.845,6.965S58.814,194.509,55.63,196.7c-1.094.8,2.968,5.6,4.7,5.1a77.114,77.114,0,0,0,14.007-11.172,38.806,38.806,0,0,0,6.965-11.84Z" transform="translate(-50.395 -153.096)" fill="#fafafa"/>
        <path id="패스_17886" data-name="패스 17886" d="M600.75,553.734s1.457.41,2.019.516a3.981,3.981,0,0,1,1.943,2.308c.471,1.184-.547,2.793-3.1,3.036-2.01.192-3.765-1.154-4.16-4.039s3.295-1.822,3.295-1.822" transform="translate(-543.004 -503.118)" fill="#ffc0b3"/>
        <path id="패스_17887" data-name="패스 17887" d="M409.183,165.708s6.467.547,9.85,3.731,10.29,18.69,11.484,31.426c-.1,1.493-3.631,2.038-5.124,2.038s-1.883-3.713-4.569-9.485-9.452-14.825-9.452-14.825Z" transform="translate(-371.909 -150.613)" fill="#fafafa"/>
        <path id="패스_17888" data-name="패스 17888" d="M374.619,150.638s-.285,1.184,1.218,1.845,6.354.854,6.137-1.059-3.86-2.323-3.86-2.323Z" transform="translate(-340.474 -135.519)" fill="#ffc0b3"/>
        <path id="패스_17889" data-name="패스 17889" d="M441.035,73.067a.869.869,0,0,0-.834.26c-.38.395-.188.455.068.194a.854.854,0,0,1,.786-.3c.244.008.217-.086-.02-.154" transform="translate(-399.907 -66.391)" fill="#6b3c23"/>
        <path id="패스_17890" data-name="패스 17890" d="M447.606,80.29a.218.218,0,0,1-.2-.194.208.208,0,0,1,.3-.194.2.2,0,0,1,.092.229.209.209,0,0,1-.19.159" transform="translate(-406.644 -72.603)" fill="#6b3c23"/>
        <path id="패스_17891" data-name="패스 17891" d="M465.6,67.407a.868.868,0,0,1,.85-.2c.528.147.393.3.04.2a.854.854,0,0,0-.829.141c-.207.131-.231.037-.061-.142" transform="translate(-423.088 -61.052)" fill="#6b3c23"/>
        <path id="패스_17892" data-name="패스 17892" d="M470.89,74.586a.218.218,0,0,0,.078-.271.208.208,0,0,0-.36-.013.2.2,0,0,0,.037.244.209.209,0,0,0,.244.041" transform="translate(-427.716 -67.445)" fill="#6b3c23"/>
        <path id="패스_17893" data-name="패스 17893" d="M465.065,85.45a1.156,1.156,0,0,0,.468.538c.323.17.141.313-.133.531s-.426-.561-.335-1.069" transform="translate(-422.677 -77.666)" fill="#ff8970"/>
        <path id="패스_17894" data-name="패스 17894" d="M455.005,101.3a2.437,2.437,0,0,1-.846.714,1.642,1.642,0,0,1-1.376-.038c-.541-.235-.218.877.849.972,1.478.131,1.747-1.875,1.372-1.647" transform="translate(-411.304 -92.052)" fill="#ff7a5e"/>
      </g>
    </g>
    <g id="그룹_19188" data-name="그룹 19188" transform="translate(274.693 298.65)">
      <g id="그룹_19187" data-name="그룹 19187" transform="translate(0 -0.002)" clip-path="url(#clip-path-5)">
        <path id="패스_17850" data-name="패스 17850" d="M139.848,21.293s-2.116,4.38-1.256,7.566,5.913,1.292,8.151-1.636,1.636-5.654.689-6.774-5.489-2.945-7.585.844" transform="translate(-126.477 -17.377)" fill="#ffc0b3"/>
        <path id="패스_17851" data-name="패스 17851" d="M172.954,60.885A15.227,15.227,0,0,0,173,55.132c-.616-2.81,6.756-6.5,6.756-6.5s-2.776,12.408,3.278,13.21l-4.548,2.876Z" transform="translate(-158.07 -44.448)" fill="#ffc0b3"/>
        <path id="패스_17852" data-name="패스 17852" d="M497.883,150.689a17.752,17.752,0,0,1,1.334-1.85c.516-.559,1.979-.6,3.442-.43s1.42-.3.9-1.162.3-.731,1.033-.861,1.893.99,2.324,2.5.172,3.184-2.237,4.088a8.217,8.217,0,0,1-4.733.215Z" transform="translate(-455.036 -133.779)" fill="#ffc0b3"/>
        <path id="패스_17853" data-name="패스 17853" d="M212.04,169.627s3.924-.714,11.594,8.294c2.408,2.408,1.694,2.319,3.567.089s6.332-6.332,6.778-6.332,3.389,2.051,3.3,2.675-7.625,12.263-9.007,13.645-5.708,1.293-11.014-3.79S205.173,169,212.04,169.627" transform="translate(-191.138 -155.004)" fill="#fafafa"/>
        <path id="패스_17854" data-name="패스 17854" d="M107.616,938.86s-1.2,4.269-2.968,6.228c-1.662,1.836-2.287,3.291-.436,3.016s5.385-.9,6.513-2.775,1.106-3.8,1.5-4.428.853,3.642,1.141,3.61,1.05-.049,1.008-.284-.8-4.383-.866-5.444a4.151,4.151,0,0,0-1.562-3.2s-2.094,5.147-3.992,6.572.207-3.916-.335-3.294" transform="translate(-94.212 -855.067)" fill="#fff"/>
        <path id="패스_17855" data-name="패스 17855" d="M112.778,607.975s-1.217,7.589-1.325,9.374,2.435,9.671,3.793,18.822c.588,1.817,4.085-1.071,4.242-2.078a38.6,38.6,0,0,0-1.16-16.164c-.454-2.694,8.277-13.393,8.277-13.393l-14.2,1.865Z" transform="translate(-101.859 -552.51)" fill="#ffc0b3"/>
        <path id="패스_17856" data-name="패스 17856" d="M147.416,937.264s-1.065,3.728-.883,4.481,1.332.072,2.083-.647a11.162,11.162,0,0,0,2.961-6.177c.144-2.686-4.161,2.342-4.161,2.342" transform="translate(-133.903 -853.742)" fill="#ffc0b3"/>
        <path id="패스_17857" data-name="패스 17857" d="M229.973,602.768s5.852,15.884,6.974,16.445c3.524,1.762,13.986-1.358,21.29-2.863,1.224-.252,1.1-3.269-3.451-3.671-9.984-.881-11.269,1.028-11.6.587-.367,0-.147-6.314-.147-6.314Z" transform="translate(-210.182 -550.895)" fill="#ffc0b3"/>
        <path id="패스_17858" data-name="패스 17858" d="M518.775,678.732s4.429.183,6.743,1.458c2.169,1.2,3.728,1.47,3.036-.269s-2.112-5.034-4.2-5.7-3.951-.2-4.654-.44,3.349-1.667,3.252-1.94-.289-1.01-.508-.916-4.081,1.789-5.1,2.094c-2.171.651-2.308,1.911-2.308,1.911s5.041,1.2,6.865,2.72-3.859.7-3.129,1.083" transform="translate(-470.716 -613.178)" fill="#fff"/>
        <path id="패스_17859" data-name="패스 17859" d="M510.885,720.609s3.873.181,4.564-.17-.236-1.312-1.108-1.879-4.31-2.166-6.957-1.689,3.5,3.738,3.5,3.738" transform="translate(-463.115 -655.098)" fill="#ffc0b3"/>
        <path id="패스_17860" data-name="패스 17860" d="M47.584,402.1s.839-.509-1.51,2.418-7.268,8.7-10.058,16.478c-.147.5,1.493.446,2.276,1.506s3.035,2.286,7.243,1.729,8.516-1.952,13.949-.167,8.663,1.227,10.767-.446a5.2,5.2,0,0,1,3.328-1.394c1.175-.056,1.077.223-2.594-6.524s-3.668-12.53-9.346-16.6-14.056,3-14.056,3" transform="translate(-32.908 -363.597)" fill="#ff9aa6"/>
        <path id="패스_17861" data-name="패스 17861" d="M140.135,195.28a33.759,33.759,0,0,1-2.674-12.367c0-6.488.936-8.963,2.876-10.167s7.368-.256,9.308.547,5.648,17.224,7.989,21.17c.468.468-.574,2.028-2.782,2.363s-14.716.649-14.716-1.545" transform="translate(-125.63 -157.356)" fill="#fafafa"/>
        <path id="패스_17862" data-name="패스 17862" d="M171.12,2.8s.741-2.53,3.156-2.467c2.453.065,3.041,1.054,5.508-.065,1.909-.866,3.535,1.348,6.347.151,1.855-.791,4.346-.624,6.669,1.786s-.129,5.293-2.711,5.207c-2.329-.078-1.778-.688-3.7-.258-2.479.555-2.237,1.42-5.12.99a3.44,3.44,0,0,0-3.83,1.649Z" transform="translate(-156.394 0.002)" fill="#db6363"/>
        <path id="패스_17863" data-name="패스 17863" d="M169.221,12.84a3.349,3.349,0,0,0-1.262,3.242c.488,1.922,2.926,1.463,3.873,2.18s1.148,3.069,2.639,3.27,2.261-1.721,3.342-1.692c2.173.057-2.109-3.729-2.109-3.729Z" transform="translate(-153.426 -11.735)" fill="#db6363"/>
        <path id="패스_17864" data-name="패스 17864" d="M205.288,64.087s.409-1.377,1.528-.968,1.119,2.41-.129,3.4-1.4-2.431-1.4-2.431" transform="translate(-187.621 -57.617)" fill="#ffc0b3"/>
        <path id="패스_17865" data-name="패스 17865" d="M148.476,6.657a1.543,1.543,0,0,0-2.008-.2,4.442,4.442,0,0,0-2.109,3.916c.043,2.065.258,1.233.459.875s.387-2.61,2.4-2.854,1.262-1.735,1.262-1.735" transform="translate(-131.935 -5.667)" fill="#db6363"/>
        <path id="패스_17866" data-name="패스 17866" d="M175.38,158.211s-.086,1.409,2.969,1.485c1.743.043,4.217-.559,3.679-2.022-.662-1.8-3.744-1.011-3.744-1.011Z" transform="translate(-160.287 -143.022)" fill="#ffc0b3"/>
        <path id="패스_17867" data-name="패스 17867" d="M2.356,525.855S2.184,526.543.951,527s-.43,1.348-.2,1.721,1.549.516,1.549.516L.033,530.33s-.287.631.832,1.119,1.377.947,2.324.229a7.366,7.366,0,0,0,2.381-3.959l.516-1.893Z" transform="translate(0 -480.574)" fill="#ffc0b3"/>
        <path id="패스_17868" data-name="패스 17868" d="M39.283,178.82S32.126,181.5,29.25,195.409c-1.137,5.016-2.834,13.084-2.233,13.419s3.662,1.357,4.131.688,6.8-11.3,7.132-15.178,1-15.518,1-15.518" transform="translate(-24.577 -163.431)" fill="#fafafa"/>
        <path id="패스_17869" data-name="패스 17869" d="M166.454,74.085a.821.821,0,0,1,.788.246c.359.373.178.43-.065.183a.807.807,0,0,0-.742-.283c-.231.007-.205-.081.019-.145" transform="translate(-151.964 -67.69)" fill="#6b3c23"/>
        <path id="패스_17870" data-name="패스 17870" d="M168.214,81.285a.206.206,0,0,0,.194-.183.2.2,0,0,0-.286-.184.192.192,0,0,0-.087.216.2.2,0,0,0,.179.151" transform="translate(-153.567 -73.935)" fill="#6b3c23"/>
        <path id="패스_17871" data-name="패스 17871" d="M141.079,68.412a.821.821,0,0,0-.8-.189c-.5.138-.372.28-.037.19a.807.807,0,0,1,.783.134c.2.124.218.035.058-.134" transform="translate(-127.9 -62.32)" fill="#6b3c23"/>
        <path id="패스_17872" data-name="패스 17872" d="M144.926,75.584a.206.206,0,0,1-.074-.256.2.2,0,0,1,.339-.013.192.192,0,0,1-.035.23.2.2,0,0,1-.231.039" transform="translate(-132.369 -68.749)" fill="#6b3c23"/>
        <path id="패스_17873" data-name="패스 17873" d="M148.111,86.469a1.092,1.092,0,0,1-.443.509c-.3.161-.133.3.126.5s.4-.53.317-1.01" transform="translate(-134.812 -79.027)" fill="#ff8970"/>
        <path id="패스_17874" data-name="패스 17874" d="M138.029,101.814a2.518,2.518,0,0,0,.776.531,2.656,2.656,0,0,0,1.323.108c.545-.115.207.837-.8.918-1.689.136-1.65-1.771-1.3-1.556" transform="translate(-125.971 -93.037)" fill="#ff7a5e"/>
      </g>
    </g>
  </g>
</svg>
